<svg id="Layer_1" data-name="Layer 1" xmlns="http://www.w3.org/2000/svg" viewBox="0 0 200 58.41"><defs><style>.cls-1,.cls-15,.cls-17,.cls-4{fill:#4b4b4b;}.cls-15,.cls-17,.cls-2,.cls-3,.cls-4{isolation:isolate;}.cls-15,.cls-3{font-size:12.64px;}.cls-3{fill:#ef58a0;font-family:Montserrat-ExtraBold, Montserrat;font-weight:800;}.cls-17,.cls-4{font-size:8.95px;}.cls-4{font-family:Montserrat-Light, Montserrat;font-weight:300;}.cls-5{letter-spacing:0em;}.cls-6{letter-spacing:0em;}.cls-7{letter-spacing:0.01em;}.cls-8{letter-spacing:0.02em;}.cls-9{letter-spacing:-0.01em;}.cls-10{letter-spacing:0em;}.cls-11{letter-spacing:0em;}.cls-12{letter-spacing:-0.01em;}.cls-13{letter-spacing:-0.01em;}.cls-14{letter-spacing:-0.02em;}.cls-15{font-family:Montserrat-SemiBoldItalic, Montserrat;font-weight:600;}.cls-15,.cls-17{font-style:italic;}.cls-16{letter-spacing:-0.01em;}.cls-17{font-family:Montserrat-ThinItalic, Montserrat;font-weight:200;}.cls-18{letter-spacing:-0.05em;}.cls-19{letter-spacing:-0.01em;}.cls-20{letter-spacing:-0.01em;}.cls-21{letter-spacing:0em;}.cls-22{fill:none;stroke:#ef58a0;}</style></defs><g id="Layer_2" data-name="Layer 2"><g id="Layer_1-2" data-name="Layer 1"><path id="Path_1" data-name="Path 1" class="cls-1" d="M111.29,67.68a3.27,3.27,0,0,0-1.24.83l-.1.09a2.83,2.83,0,0,0-.65.55c-.19.22-.4.43-.6.64-.06.06-.13.13-.23.06s-.07,0-.08,0a1.35,1.35,0,0,1-.59.41l-.41.29a.31.31,0,0,1-.09.07c-.12,0-.25,0-.36,0a1.56,1.56,0,0,1-.68,0,.81.81,0,0,0-.38,0c-.23,0-.32,0-.38-.27l-.27.1a.24.24,0,0,1-.28-.21v0c0-.14.06-.28.09-.42s0-.16,0-.23,0-.22,0-.35a1.06,1.06,0,0,0-.55.13,4,4,0,0,1-.68.37l-.07,0a.2.2,0,0,1-.28,0v0a.17.17,0,0,1,0-.25v0a1.31,1.31,0,0,1,.44-.52.48.48,0,0,1,.2,0c.09,0,.17,0,.19-.11a.59.59,0,0,1,.31-.45c.17-.09.19-.27.29-.4a3.48,3.48,0,0,1,.77-.81c.28-.21.55-.45.84-.65a4.34,4.34,0,0,1,.66-.38.34.34,0,0,1,.28,0,1.55,1.55,0,0,0,1,.26.2.2,0,0,0,.22-.13.42.42,0,0,1,.09-.14c.19-.24.3-.26.57-.13a1.5,1.5,0,0,0,.81.2c.15,0,.32,0,.48,0a.5.5,0,0,0,.26-.08,1,1,0,0,1,.51-.15l.31,0a.49.49,0,0,0,.35-.26.75.75,0,0,0-.73-.3l-.84.07a.19.19,0,0,0-.14.09c0,.06,0,.15-.09.21s-.09.08-.12.07a.12.12,0,0,1-.07-.11.84.84,0,0,1,.06-.24c0-.12.07-.24.1-.35a.85.85,0,0,1,.42-.35A3.71,3.71,0,0,1,112,65l.21,0a1,1,0,0,0-.77-.69,2.52,2.52,0,0,1-.47-.13.2.2,0,0,0-.26,0c-.06.08-.1.17-.16.25s-.11.12-.15.12-.11-.09-.13-.14a.57.57,0,0,1,.49-.66h0a.52.52,0,0,0,.24,0,.59.59,0,0,1,.55,0,5.86,5.86,0,0,1,.55.3,5.36,5.36,0,0,1,.55.38,2.61,2.61,0,0,1,.27.31l.08.09c0-.44.15-.59.48-.44a.3.3,0,0,0,0-.33,1.32,1.32,0,0,1-.06-.39.26.26,0,0,0-.21-.25c-.21-.06-.4-.16-.6-.23a.32.32,0,0,0-.19,0,.9.9,0,0,1-.56-.06,3.71,3.71,0,0,0-1.27-.32.61.61,0,0,1-.41-.15s-.14,0-.09-.14a.23.23,0,0,1,.21-.15h.17c.12,0,.23.06.35.09l.07,0a.87.87,0,0,0-.5-.26l-.56-.1a.17.17,0,0,0-.1,0c-.08,0-.13,0-.15-.05a.38.38,0,0,0-.27-.29c-.22-.1-.43-.25-.7-.15l-.22.11-.26.07-.1,0c-.12.12-.17.12-.31,0s-.18-.08-.25,0-.1.21-.23.23a.75.75,0,0,1-.49-.12.55.55,0,0,1-.25-.49,9.77,9.77,0,0,0-.32-1.4c-.07-.32-.13-.64-.17-1a3.39,3.39,0,0,0-.3-.88l-.12-.31a2.66,2.66,0,0,0-.57-.84,1,1,0,0,0-.15-.2.32.32,0,0,0-.16-.09.58.58,0,0,1-.4-.68.2.2,0,0,1,.22-.17,3.58,3.58,0,0,1,.45,0l-.43-.6c-.13-.18-.32-.13-.49-.14a.68.68,0,0,1-.73-.55,2.81,2.81,0,0,1-.07-.65.29.29,0,0,0-.27-.31.2.2,0,0,0-.13,0,.86.86,0,0,1-.39,0,3.09,3.09,0,0,1-.8-.48.3.3,0,0,0-.16-.08l-.55-.1h0c-.14-.18-.35-.12-.53-.15a.27.27,0,0,1-.24-.16.2.2,0,0,0-.25-.13.39.39,0,0,1-.33-.17,2.11,2.11,0,0,0-.35-.26,1.75,1.75,0,0,0-.46.05c-.21.1-.41.19-.61.3a.91.91,0,0,0-.23.17.17.17,0,0,1-.24,0,.2.2,0,0,1-.06-.07.25.25,0,0,0-.21-.16l-.2-.11a1.41,1.41,0,0,1-.63-1,7.74,7.74,0,0,1-.12-1.18,1.19,1.19,0,0,1,.3-.94A3,3,0,0,1,97.3,49c.23-.16.47-.3.69-.46a.29.29,0,0,1,.4,0s0,0,0,0l.09.13a.3.3,0,0,1,.42,0l0,0a.18.18,0,0,0,.1,0,.3.3,0,0,1,.29.27.23.23,0,0,0,.1.16.72.72,0,0,1,.18.25c.27,0,.57.08.55.4.37,0,.32.33.36.57a.46.46,0,0,0,.28.39c.21.07.3.26.41.43a5,5,0,0,1,.49,1.13h0c.06.24.07.25.31.18l.61-.2a1.08,1.08,0,0,1,0-.88c0-.1.1-.21.16-.31s0-.06,0-.06.13-.16.16-.27a.52.52,0,0,1,.46-.4l.43-.07a.68.68,0,0,1,.2,0,1.63,1.63,0,0,1,.66.41c.22.21.45.42.69.61a4.94,4.94,0,0,1,1,1.22.31.31,0,0,1,.35-.18s.07,0,.1,0l.26-.14a1,1,0,0,1,.22-.56.16.16,0,0,1,.2-.08h0l.4.12a.54.54,0,0,0-.26-.47.88.88,0,0,1-.24-.19.39.39,0,0,0-.25-.1.28.28,0,0,1-.2-.08,1,1,0,0,1-.21-.3,1.76,1.76,0,0,0-.55-.57.53.53,0,0,1-.14-.12,1.45,1.45,0,0,0-.61-.43.23.23,0,0,0-.28,0,.27.27,0,0,1-.3,0l-.57-.41a1.13,1.13,0,0,0-.21-.12l-.74-.24-.06,0a4,4,0,0,0-.5.08.68.68,0,0,0-.26.18l-.17.17c-.16.15-.27.13-.47,0-.15.22-.36.17-.55.08s-.12-.15-.19-.22a.43.43,0,0,0-.12-.11c-.31-.1-.64-.1-1-.2a2.54,2.54,0,0,1-.7-.43,5.62,5.62,0,0,1-.8-.74c-.32-.37-.66-.71-1-1.06s-.49-.52-.76-.77-.66-.61-1-.9-.46-.33-.7-.5-.38-.3-.59-.44-.16-.08-.23-.13a.58.58,0,0,1-.19-.19h-.16s-.09,0-.09-.05-.13-.17-.26-.17a.33.33,0,0,1-.34-.27c0-.11-.1-.14-.18-.19S93,42.7,93,42.63l-.27-.17c-.26-.13-.53-.23-.77-.38s-.59-.44-.88-.66a.82.82,0,0,1-.19-.22l-.27-.45a.23.23,0,0,1,0-.29.37.37,0,0,1,.28-.09,4.19,4.19,0,0,1,.47.14,1.65,1.65,0,0,0,.38.05,7.44,7.44,0,0,1,1.63.15c.36.07.72.17,1.08.26l.12,0v0l-.18,0a2.58,2.58,0,0,1,.44.22c.07,0,.16.15.15.2s-.17.13-.27.1l-.62-.17a2.66,2.66,0,0,0-.79-.12c-.31,0-.61-.08-.92-.12H92.3a2.56,2.56,0,0,0,.2.26c.26.24.51.48.78.71a.61.61,0,0,0,.26.08.5.5,0,0,1,.49.5s0,0,0,.08v0c.19.08.42.08.49.33,0,0,0,0,.06.06l1.27.52c.21.09.43.16.63.25s.45.22.68.33l.65.27a1.23,1.23,0,0,0,1,.13l-.3-.11c-.19-.07-.21-.13-.15-.31s.06-.29.1-.46c-.27.12-.44,0-.5-.24a1.47,1.47,0,0,0-.27-.47,1.19,1.19,0,0,0-.16-.23l-.25-.22-.5-.36-.68-.53a.23.23,0,0,1,.21-.39l.24,0-.42-.59a1.75,1.75,0,0,1-.18-.29.11.11,0,0,1,0-.11.22.22,0,0,1,.11,0,2.1,2.1,0,0,1,.3.15l.37.25L97,41a1,1,0,0,0,.23.05l.66.22c.14,0,.26.13.4.19a.58.58,0,0,0,.19,0l0,0a3.65,3.65,0,0,0-.24-.31c-.24-.28-.49-.56-.74-.83l0-.06c-.09-.3-.36-.41-.58-.56a.56.56,0,0,1-.25-.4c0-.18,0-.22-.23-.21a.44.44,0,0,1-.41-.23l-.17-.16a2.75,2.75,0,0,1-.22-.26v0l-.43-.35c-.19-.15-.39-.29-.59-.43s-.46-.32-.7-.46-.59-.33-.9-.48a3.47,3.47,0,0,0-.55-.16A4.23,4.23,0,0,1,91.36,36c-.26-.17-.52-.35-.77-.54L90,35a.39.39,0,0,1-.08-.1s0-.08,0-.09a.12.12,0,0,1,.1,0,.57.57,0,0,1,.21.13.81.81,0,0,0,.45.15,2,2,0,0,1,.79.29,4.48,4.48,0,0,0,1.56.51c.37.06.73.15,1.1.23s.48.09.71.16c.38.11.76.22,1.14.35.58.2,1.15.42,1.73.64a3,3,0,0,1,.56.24,2.53,2.53,0,0,1,.37.36c-.06,0-.1,0-.11.06a.25.25,0,0,1-.35.06h0a7.93,7.93,0,0,0-1.34-.57c-.07,0-.14-.09-.22-.12l-1.07-.41L95,36.66l-1.1-.25a2.83,2.83,0,0,0-.3,0l-.45-.07.07.06.85.47.83.41.54.27.06,0a.62.62,0,0,1,.56.38.18.18,0,0,0,.19.12c.16,0,.22.13.27.23a2.51,2.51,0,0,0,.69.76,2.09,2.09,0,0,0,.44.25,1.58,1.58,0,0,1,.53.53.9.9,0,0,0,.33.25,2.48,2.48,0,0,1,.26.19l.12.08.2.12a.71.71,0,0,0,.14.1c.12.06.09.15,0,.24s.17.08.15.2,0,.09.05.13a3.79,3.79,0,0,0,.3.4.38.38,0,0,0,.23.11.88.88,0,0,1,.48.32,1.22,1.22,0,0,0,.48.39,5.68,5.68,0,0,1,.78.39,3.42,3.42,0,0,1,.49.44c.15.15.32.29.48.45a2.43,2.43,0,0,1,.2.25c.06.08.11.17.24.16-.08-.3-.14-.6-.22-.89a5.69,5.69,0,0,0-.24-.65.33.33,0,0,0-.1-.14c-.16-.11-.28-.29-.5-.34s-.16-.13-.23-.21a.33.33,0,0,0-.34-.16.51.51,0,0,1-.52-.5c0-.13-.06-.18-.18-.21a.36.36,0,0,1-.19-.13,3.45,3.45,0,0,1-.24-.47.24.24,0,0,1,0-.27s0-.16,0-.25-.08-.29-.09-.44,0-.27.19-.3c0,0,0,0,.06,0l-.28-.09a2.31,2.31,0,0,1-.91-.46l-.15-.21,0,0,.27,0-.14-.15c.09-.09.16-.06.25,0,.25.13.5.26.74.4a.2.2,0,0,0,.25,0l.17-.08c-.21-.15-.4-.3-.6-.43a.43.43,0,0,1-.23-.23.22.22,0,0,0-.09-.1,7.18,7.18,0,0,0-.63-.39c-.22-.12-.22-.12-.19-.38-.28-.16-.58-.32-.86-.5a5.66,5.66,0,0,1-.67-.54,3.16,3.16,0,0,0-.9-.58,4.55,4.55,0,0,1-.87-.58c-.22-.16-.45-.28-.68-.43l-1.21-.81c-.18-.12-.34-.24-.51-.37s0-.07-.06-.11.12-.05.16,0c.2.1.39.2.59.32l1.13.69c.15.09.28.2.43.3a.32.32,0,0,0,.14.08,1.55,1.55,0,0,1,.65.39A1.38,1.38,0,0,0,97,35l-.33-.25-.84-.59c-.27-.19-.54-.38-.8-.58s-.58-.46-.87-.68a2.5,2.5,0,0,0-.41-.25.37.37,0,0,1-.14-.49.17.17,0,0,1,.25,0h0c.34.26.67.54,1,.8.69.51,1.38,1.06,2.11,1.53s1.11.87,1.67,1.3a2.84,2.84,0,0,1,.5.59s0,.13,0,.19h0l.32.25,0,0-.19-.23.12,0a7.79,7.79,0,0,1,.65.48l.8.8a.36.36,0,0,0,.24.09,1.69,1.69,0,0,1,.65.23l.34.19.23.17c.05,0,.08.08.17.07s.13.07.17.13.11.12.21,0a2,2,0,0,0-.53-.43l-.34-.18-.81-.55-.24-.14-.62-.47a2.17,2.17,0,0,1-.24-.29,2.87,2.87,0,0,0-.57-.39,6,6,0,0,1-1.18-.94l-.87-1a.7.7,0,0,1-.11-.23.1.1,0,0,1,0-.1.11.11,0,0,1,.11,0,13.79,13.79,0,0,0,1.12,1c0-.06.05-.12.09-.13a.22.22,0,0,1,.16,0,.71.71,0,0,1,.18.08l.16.1c-.06-.16,0-.25.15-.27a.15.15,0,0,1,.09.06,2.46,2.46,0,0,0,.46.6c.19.2.34.44.52.65s.25.21.36.33.37.43.58.63.57.45.85.69.58.55.89.81a6.34,6.34,0,0,0,1.17.89,2.49,2.49,0,0,1,.86.72.13.13,0,0,0,.1.06.42.42,0,0,1,.33.16,1.69,1.69,0,0,0,.55.4,2.26,2.26,0,0,1,.56.46,4.21,4.21,0,0,0,1.16.9c0-.08.17-.13.07-.24-.27,0-.37-.06-.39-.25a.48.48,0,0,1-.36-.53c0-.11,0-.22,0-.33a.11.11,0,0,1,0-.08c.2-.18.13-.46.24-.67l.14-.28c0,.05.08.09.12.15a.56.56,0,0,0,.51.29h.37a.83.83,0,0,1,.63.46c.16.21.32.4.49.59s.09.07.1.12.16.22.21.35a.11.11,0,0,0,.09,0,.15.15,0,0,1,.19.08.11.11,0,0,1,0,.08,1.51,1.51,0,0,0,0,.3.25.25,0,0,0,.08.17.42.42,0,0,1,.17.34.76.76,0,0,1,0,.15,1.12,1.12,0,0,0,.06.63,2,2,0,0,0,.3.42.07.07,0,0,0,.06,0c.12-.06.15,0,.16.12a1.22,1.22,0,0,0,.25.57c0,.07.1.08.15,0s.11-.08.18,0a.24.24,0,0,0,.11.06A.23.23,0,0,1,112,45a.74.74,0,0,1-.14.23s.14.12.22.12c.34,0,.47.22.57.49s.15.45.23.67l.09.2a.2.2,0,0,0,.19.11.86.86,0,0,1,.28,0,.48.48,0,0,1,.37.33c0,.11.11.2.16.31a.58.58,0,0,1,0,.19h0c.28.15.27.24,0,.5a1.58,1.58,0,0,1-.14.16h.15c.23,0,.33.12.32.34a1.86,1.86,0,0,1,0,.34s-.06.07-.08.1a2.6,2.6,0,0,0-.25.36.2.2,0,0,0,.1.27h0c.44.15.42.3.27.71a.82.82,0,0,1-.17.2l-.24.18a.91.91,0,0,1,.17.09.12.12,0,0,1,0,.07.35.35,0,0,1,0,.2c0,.19.08.36,0,.55l-.06.13c.1.11.1.13,0,.32.08.15.07.18-.09.37.12.17.11.16,0,.35a1.19,1.19,0,0,0-.11.41c0,.19-.07.38-.1.57a.8.8,0,0,1-.48.63.88.88,0,0,0-.46.39s0,0,0,.06a1.38,1.38,0,0,0,0,.45,1.84,1.84,0,0,0,.6.94.62.62,0,0,0,.26.09.37.37,0,0,0,.14-.07s0,0,.07,0c.21,0,.34-.12.48-.24s.36-.35.56-.5a1.34,1.34,0,0,1,.77-.28h.67a1.41,1.41,0,0,1,1,.41c.16.14.3.31.48.44s.22.21.4.17a.07.07,0,0,1,.05,0,.28.28,0,0,0,.4,0l0,0a2.13,2.13,0,0,0,.29-.31,1.6,1.6,0,0,0,.33-.68.27.27,0,0,0,0-.13s0-.05,0-.08a.58.58,0,0,0-.39-.57.89.89,0,0,1-.59-.71,8.57,8.57,0,0,0-.18-.88.18.18,0,0,0,0-.1c-.12-.15-.12-.18,0-.32,0-.13-.24-.21-.08-.38-.05-.11-.18-.21,0-.32-.06-.14-.13-.28,0-.43s0,0,0-.07,0-.17,0-.25a.14.14,0,0,0,0-.06c0-.18,0-.18.21-.23-.09-.07-.15-.14-.23-.19a.77.77,0,0,1-.27-.65.32.32,0,0,1,.14-.16.62.62,0,0,1,.22-.1.21.21,0,0,0,.14-.26v0a.85.85,0,0,0-.21-.32c-.22-.15-.19-.35-.16-.54s.09-.27.45-.29l-.22-.25c-.14-.19-.12-.26.09-.38l0,0h0a1.57,1.57,0,0,1,.09-.23l.12-.27a.52.52,0,0,1,.49-.33h.13a.18.18,0,0,0,.21-.13l.27-.7c0-.12.08-.23.13-.35a.48.48,0,0,1,.42-.29.73.73,0,0,0,.31-.14c-.14-.07-.22-.16-.14-.31l0-.07.24-.14a.16.16,0,0,1,.15,0c.07.11.11.07.17,0a1.24,1.24,0,0,0,.24-.58c0-.07,0-.13.14-.09a.08.08,0,0,0,.08,0,3.77,3.77,0,0,0,.34-.54.88.88,0,0,0,0-.36.65.65,0,0,1,.17-.61c.13-.12.1-.31.1-.48s.07-.2.2-.16a.18.18,0,0,0,.09-.07c.15-.16.21-.38.39-.54a2.46,2.46,0,0,0,.46-.6.79.79,0,0,1,.69-.38l.4,0a.48.48,0,0,0,.36-.26.44.44,0,0,1,.08-.11c.2.07.17.26.23.39a.57.57,0,0,1,0,.18.47.47,0,0,0,.12.28.32.32,0,0,1,.08.2c0,.25.08.51-.17.69l-.17.1a.3.3,0,0,1-.33.26l-.06,0c-.11.11,0,.17,0,.25a3.06,3.06,0,0,0,.86-.61c.19-.17.35-.37.54-.52s.48-.31.71-.47a.58.58,0,0,0,.12-.1.5.5,0,0,1,.39-.21.12.12,0,0,0,.08,0,2.86,2.86,0,0,1,1-.83,3.53,3.53,0,0,0,.81-.63,3.31,3.31,0,0,1,.41-.35c.25-.22.48-.44.73-.65s.51-.39.75-.6.3-.31.45-.47.26-.26.38-.4.4-.43.59-.65l.22-.26a5,5,0,0,0,.33-.47c.07-.13.16-.08.23-.06a.13.13,0,0,1,0,.2,0,0,0,0,1,0,0l.38-.18c.13,0,.17,0,.2.14l.23-.2c.17-.14.34-.27.5-.42s.25-.25.37-.38.09-.14.16-.06a.2.2,0,0,1,0,.2,1.42,1.42,0,0,1-.25.3c-.17.2-.35.39-.52.58a3.65,3.65,0,0,1-.35.43,5.08,5.08,0,0,1-.56.46,3.15,3.15,0,0,1-.52.35,2,2,0,0,0-.51.36,1.49,1.49,0,0,0-.17.18s0,.07-.06.09a6.54,6.54,0,0,1-.52.4c-.38.27-.78.53-1.18.79-.16.1-.35.18-.51.29a2.89,2.89,0,0,0-.32.29c.13.11.14.11.21,0s.1-.17.23-.12.06,0,.09-.06a4.48,4.48,0,0,1,1.07-.59h0c.29,0,.44-.17.61-.35a5.74,5.74,0,0,1,1.12-1,.35.35,0,0,1,.21-.07l-.17.19,0,0,.29-.22a.67.67,0,0,1,0-.23,6,6,0,0,1,.52-.61c.37-.33.76-.65,1.16-.95.25-.2.55-.34.81-.53l1.86-1.37c.26-.19.51-.39.76-.59l.15-.14a.48.48,0,0,1,.23-.07c.09,0,.12.11.12.21s0,.25-.25.36a3.21,3.21,0,0,0-.48.34c-.4.3-.79.61-1.19.9L135.44,35l-.06.05a1.58,1.58,0,0,0,.61-.3,2,2,0,0,1,.7-.43,1.23,1.23,0,0,0,.25-.17l.95-.58c.34-.21.69-.4,1-.6a.13.13,0,0,1,.07,0l.14,0s0,.09-.06.11c-.29.21-.57.41-.86.6-.49.33-1,.64-1.48,1-.15.1-.28.24-.43.34a3.35,3.35,0,0,1-.55.31,3.41,3.41,0,0,0-.95.65,4.19,4.19,0,0,1-1,.71l-.42.24a.5.5,0,0,1,0,.12.21.21,0,0,1-.13.22c-.24.13-.47.27-.7.42-.05,0-.07.11-.11.16a1.37,1.37,0,0,1-.17.17l-.64.44c.11.06.17.13.25.13a.48.48,0,0,0,.23-.07c.23-.11.44-.24.66-.35s.17-.11.26,0a1.31,1.31,0,0,1-.13.16l.26,0,0,0a.82.82,0,0,1-.12.2,2.55,2.55,0,0,1-.4.27c-.26.12-.53.21-.79.31h0c.06,0,.17.08.18.13a1.63,1.63,0,0,1,0,.44c0,.1-.08.2-.1.3a.65.65,0,0,0,0,.19.41.41,0,0,1,0,.19,4.66,4.66,0,0,1-.25.5.39.39,0,0,1-.2.13c-.09,0-.17.06-.17.19a.54.54,0,0,1-.55.52h-.07s-.12,0-.16.08-.12.14-.19.21a.2.2,0,0,1-.1.08.9.9,0,0,0-.42.27.84.84,0,0,0-.22.3,3.13,3.13,0,0,0-.19.51c-.08.26-.13.51-.19.77l0,.17c.12,0,.18-.06.23-.14a3.82,3.82,0,0,1,.62-.65l.26-.28a2.58,2.58,0,0,1,.81-.49,1.51,1.51,0,0,0,.77-.57.84.84,0,0,1,.46-.27.62.62,0,0,0,.3-.18,1.08,1.08,0,0,0,.27-.53.2.2,0,0,1,.1-.14c0-.11,0-.18.15-.25a2.29,2.29,0,0,0,.43-.32A2.59,2.59,0,0,1,134,40c.18-.09.27-.27.39-.41a1.9,1.9,0,0,1,.54-.4,3.2,3.2,0,0,0,.55-.42,2.63,2.63,0,0,0,.49-.61c0-.06.14-.09.22-.13l.15-.11c.1-.1.19-.21.28-.31a.24.24,0,0,1,.13-.07.8.8,0,0,0,.42-.16c.4-.19.8-.37,1.19-.57s.56-.31.84-.46l.08-.07-1.15.2a.88.88,0,0,0-.16,0c-.3.07-.6.14-.9.23s-.44.17-.66.25l-.56.2c-.37.13-.74.27-1.1.42a2.76,2.76,0,0,0-.44.25.34.34,0,0,1-.46,0l-.07,0a.91.91,0,0,1,.65-.51c.44-.16.86-.36,1.29-.53l.67-.22c.45-.14.89-.3,1.35-.41.63-.15,1.27-.26,1.9-.39a3.93,3.93,0,0,0,1.34-.49,2,2,0,0,1,.86-.28,1.83,1.83,0,0,0,.32-.14l.21-.12a.08.08,0,0,1,.09,0,.1.1,0,0,1,0,.09,1.19,1.19,0,0,1-.2.19c-.38.28-.77.57-1.16.83s-.69.41-1,.6a1.73,1.73,0,0,1-.42.14,2.87,2.87,0,0,0-.94.43c-.36.23-.73.45-1.09.69a2,2,0,0,0-.53.39c-.13.15-.34.21-.4.41,0,0-.06.07-.09.1s-.21.19-.3.3a.48.48,0,0,1-.35.16c-.21,0-.23,0-.26.23a.51.51,0,0,1-.25.38l-.15.1a1.19,1.19,0,0,0-.43.46,2.46,2.46,0,0,1-.43.48l-.49.57a.48.48,0,0,0-.07.2.58.58,0,0,0,.19,0,3.06,3.06,0,0,1,1-.38l.2,0a1.12,1.12,0,0,0,.28-.16,1.77,1.77,0,0,1,.63-.38s.09-.06.13-.09h.12s0,.08,0,.11a2.61,2.61,0,0,1-.17.28l-.43.59a1.17,1.17,0,0,0,.23,0,.22.22,0,0,1,.26.11.22.22,0,0,1-.05.3c-.16.13-.31.25-.48.37s-.35.27-.53.4a2.27,2.27,0,0,0-.32.22,3.27,3.27,0,0,0-.35.48.58.58,0,0,0-.16.32.46.46,0,0,1-.15.26.21.21,0,0,1-.29,0s0,0,0,0l0,0c0,.14.06.29.1.43s0,.25-.14.31a2.92,2.92,0,0,0-.34.13,1.45,1.45,0,0,0,1.08-.15c.19-.09.39-.15.58-.24s.15-.09.23-.12l1.12-.47,1.06-.46.13-.05a.25.25,0,0,0,.2-.17c.09-.17.28-.18.45-.24a.5.5,0,0,1,0-.17c.06-.24.1-.41.46-.43a.69.69,0,0,0,.39-.17,5,5,0,0,0,.86-.91c-.25,0-.47.09-.7.11s-.44,0-.66.06-.43.11-.65.16a3.86,3.86,0,0,1-.49.1c-.06,0-.14-.06-.2-.09s.07-.16.13-.19a3.38,3.38,0,0,1,.46-.24h-.2l.1-.07c.31-.08.61-.17.92-.23a8.5,8.5,0,0,1,2-.18,1.87,1.87,0,0,0,.42-.13,1.32,1.32,0,0,1,.39-.06.22.22,0,0,1,.21.23.2.2,0,0,1,0,.11,2.38,2.38,0,0,1-.68.89,7.6,7.6,0,0,1-1.24.78l-.39.17s-.06,0-.06,0a.57.57,0,0,1-.32.29.26.26,0,0,0-.1.13.4.4,0,0,1-.42.3.16.16,0,0,0-.17.11c0,.08-.07.12-.16.11a.12.12,0,0,0-.16.07h0a.18.18,0,0,1-.11.1c-.28.06-.45.3-.68.44s-.33.24-.5.36-.49.36-.72.56-.51.46-.75.7-.49.51-.74.76-.33.32-.49.49-.41.48-.63.7-.42.38-.63.56a2.43,2.43,0,0,1-.32.24,1.74,1.74,0,0,1-.86.27,2.89,2.89,0,0,0-.51.11s0,.07-.07.1-.11.18-.19.21c-.26.1-.35.13-.55-.06a.33.33,0,0,1-.46,0l0,0-.17-.19a.46.46,0,0,0-.34-.16h-.08a1.29,1.29,0,0,0-.82.12l-.1,0a1.09,1.09,0,0,0-.6.33,2.16,2.16,0,0,1-.35.24.32.32,0,0,1-.36,0,.33.33,0,0,0-.26,0,1.71,1.71,0,0,0-.62.44c-.12.14-.3.22-.42.36a3.68,3.68,0,0,0-.37.51A.35.35,0,0,1,125,51a.16.16,0,0,0-.13.06l-.26.2a.56.56,0,0,0-.29.49c.13,0,.26-.07.39-.12a.15.15,0,0,1,.21.07.92.92,0,0,1,.21.62.21.21,0,0,1,.27.08.14.14,0,0,0,.1,0c.22,0,.22,0,.36.16a4.82,4.82,0,0,1,.82-1c.26-.24.55-.44.79-.7a1.77,1.77,0,0,1,.7-.47.87.87,0,0,1,.36,0,1.79,1.79,0,0,1,.46.09.51.51,0,0,1,.33.45c0,.07,0,.13.1.14a.1.1,0,0,1,.06,0,1.49,1.49,0,0,1,.29,1,1.72,1.72,0,0,1-.07.21l.8.22c.08,0,.11,0,.13-.1a3.87,3.87,0,0,1,.68-1.52.55.55,0,0,1,.23-.17.42.42,0,0,0,.28-.39,2,2,0,0,1,0-.26c0-.21.1-.27.33-.3a.3.3,0,0,1,.17-.35,1.86,1.86,0,0,1,.41-.08.26.26,0,0,1,.19-.26s0-.06,0-.1a.29.29,0,0,1,.29-.29.2.2,0,0,0,.11-.06.29.29,0,0,1,.41,0l0,0,.06-.11a.3.3,0,0,1,.39-.13l.09.07c.14.11.31.18.46.29.32.23.71.4.87.8a2,2,0,0,1,.12.68,4.17,4.17,0,0,1-.07.71c0,.23-.06.46-.1.69a1.37,1.37,0,0,1-.65.86l-.08,0a.33.33,0,0,0-.27.2c-.06.11-.19.09-.28,0a1.12,1.12,0,0,0-.22-.16,3.55,3.55,0,0,1-.61-.32.34.34,0,0,0-.46,0,3.18,3.18,0,0,0-.37.27.38.38,0,0,1-.33.16c-.08,0-.17,0-.21.09a.4.4,0,0,1-.45.22.41.41,0,0,0-.32.11.09.09,0,0,1-.06,0l-.51.09a.92.92,0,0,0-.23.09c-.26.16-.5.33-.77.48a.52.52,0,0,1-.47,0c-.13-.06-.33.11-.34.28a3.14,3.14,0,0,1,0,.53,1.11,1.11,0,0,1-.09.31.65.65,0,0,1-.65.4.6.6,0,0,0-.66.32,2.42,2.42,0,0,1-.29.42l.45-.05a.2.2,0,0,1,.22.18.56.56,0,0,1-.39.67.34.34,0,0,0-.2.15,3,3,0,0,1-.32.39,2.13,2.13,0,0,0-.42.75c-.07.21-.19.4-.24.61s-.14.63-.21,1-.13.56-.2.84-.15.72-.22,1.08a.59.59,0,0,1-.43.5c-.25,0-.38.07-.51-.2s-.15-.13-.26,0-.19.11-.31,0a.12.12,0,0,0-.08,0,.56.56,0,0,1-.39-.13.53.53,0,0,0-.52,0l-.32.15a.35.35,0,0,0-.24.26c0,.08-.07.1-.15,0a.16.16,0,0,0-.09,0c-.21,0-.41.09-.62.11a.87.87,0,0,0-.44.26l.15-.06a.34.34,0,0,1,.31,0,.22.22,0,0,0,.11,0,.2.2,0,0,1,.21.14c.06.09,0,.11-.08.15a.76.76,0,0,1-.52.17,3,3,0,0,0-1.06.26,1.38,1.38,0,0,1-.66.11,1.85,1.85,0,0,0-.57.15,1.69,1.69,0,0,0-.31.13.36.36,0,0,0-.12.18,4.51,4.51,0,0,0-.1.53.54.54,0,0,0,.06.25c.14-.08.26-.18.39,0a.4.4,0,0,1,.08.43l.08-.06a1.61,1.61,0,0,1,.58-.55c.16-.1.31-.23.48-.32a3.07,3.07,0,0,1,.6-.22.8.8,0,0,1,.3.06l.2,0c.33,0,.4.11.48.31a.45.45,0,0,1,0,.42c-.06.11-.15.12-.22,0s-.1-.18-.16-.26-.2-.14-.35-.07a1.45,1.45,0,0,1-.41.1.72.72,0,0,0-.6.37c-.06.11-.14.2-.22.32.33,0,.63-.12.93-.15a3.35,3.35,0,0,1,.71,0,.6.6,0,0,1,.4.43c0,.13.09.26.14.39a.17.17,0,0,1,0,.1.83.83,0,0,1-.07.13l-.13-.08a.22.22,0,0,1,0-.11c0-.18-.15-.2-.32-.2a3.68,3.68,0,0,1-.66-.06.77.77,0,0,0-.77.3c.13.27.38.28.63.29a1.18,1.18,0,0,1,.55.17.4.4,0,0,0,.24.07c.3,0,.6,0,.9-.08a1.4,1.4,0,0,0,.4-.16c.26-.12.47-.09.59.17a.4.4,0,0,0,.49.23,1.88,1.88,0,0,0,.33,0,1,1,0,0,0,.33-.15c.2-.18.37-.1.57,0a9.33,9.33,0,0,1,1.49,1.09,2.49,2.49,0,0,1,.74.93.34.34,0,0,0,.12.12.64.64,0,0,1,.33.47s.12.13.15.12c.23-.08.34.09.45.22a2.08,2.08,0,0,1,.24.34.17.17,0,0,1,0,.25.21.21,0,0,1-.29,0,.36.36,0,0,0-.16-.11,1.71,1.71,0,0,1-.56-.31,1.53,1.53,0,0,0-.63-.15c.07.33.13.64.2.94a.28.28,0,0,1-.13.29c-.09.08-.17,0-.25,0l-.16-.08c-.1.27-.16.29-.47.27l-.44,0a.74.74,0,0,1-.21,0,2.75,2.75,0,0,0-.5-.09c-.21,0-.3-.12-.43-.22a4.52,4.52,0,0,0-.49-.25,1.55,1.55,0,0,1-.24-.19.93.93,0,0,1-.16-.18c-.1.09-.18.06-.26,0l-.81-.88a.69.69,0,0,0-.13-.11c-.2-.17-.42-.32-.61-.5a4.31,4.31,0,0,0-1.09-.65c0,.19-.18.19-.3.24s-.2.09-.12.29a2.71,2.71,0,0,0,.54.75,7.79,7.79,0,0,1,.51.63,1.85,1.85,0,0,1,.24.73,6.09,6.09,0,0,0,.25.83c.06.22.11.44.15.67s-.08.14-.19.09a2.67,2.67,0,0,1-.77-.69c-.3-.38-.62-.75-.92-1.14-.15-.2-.27-.43-.4-.64a4.89,4.89,0,0,0-.41-.6c0,.17.09.34.14.51.17.51.27,1,.48,1.56a6.85,6.85,0,0,1,.2.81,1.47,1.47,0,0,1,0,.66c0,.27-.09.29-.34.15l0,0a.54.54,0,0,0-.4.23s0,0,0,0c-.2,0-.4,0-.61,0a.08.08,0,0,0-.08,0,2.49,2.49,0,0,0-.22.43.74.74,0,0,1-.35.44,1.14,1.14,0,0,0-.5.54.26.26,0,0,1-.24.18.37.37,0,0,1-.3-.21,1,1,0,0,0-.08-.14.12.12,0,0,0-.16,0,.1.1,0,0,0,0,.05.36.36,0,0,1-.36.22,1,1,0,0,0-.34.1.4.4,0,0,1-.32,0c-.15-.05-.32-.07-.47-.12a.48.48,0,0,1-.21-.17c-.1-.14-.17-.14-.27,0a1,1,0,0,1-.23.26c-.13.08-.27,0-.34-.15a1.13,1.13,0,0,0-.48-.53.76.76,0,0,1-.37-.47,2.52,2.52,0,0,0-.21-.4s-.08,0-.12,0H113a.62.62,0,0,0-.19,0c-.11,0-.16,0-.21-.1a.38.38,0,0,0-.15-.09l-.22,0c-.24.12-.25.11-.32-.2a1.68,1.68,0,0,1,.07-.83,7.1,7.1,0,0,1,.32-1,4.35,4.35,0,0,0,.18-.71c.08-.29.17-.57.26-.86a.17.17,0,0,0,0-.1c-.09.14-.18.28-.26.43a4.26,4.26,0,0,1-.7,1c-.11.11-.18.25-.28.37-.25.31-.5.62-.77.9a2.54,2.54,0,0,1-.5.36s-.08,0-.09,0-.07-.1,0-.13a4.69,4.69,0,0,1,.19-.76,2.54,2.54,0,0,0,.22-.85,1.65,1.65,0,0,1,.46-.93,5.35,5.35,0,0,0,.45-.5,6.25,6.25,0,0,0,.38-.61.11.11,0,0,0-.07-.18l-.19-.09A1.33,1.33,0,0,1,111.29,67.68ZM96,44.23l.3.26.7.66.68.66a.47.47,0,0,0,.21.16.3.3,0,0,1,.22.16.53.53,0,0,0,.16.2l.53.38c.12.09.25.19.38.27.3.16.61.32.92.46a1.26,1.26,0,0,0,.64.08.62.62,0,0,0-.07-.23.83.83,0,0,0-.3-.26c-.26-.12-.53-.21-.8-.31,0,0-.06-.07-.09-.1a.31.31,0,0,1,.12,0l.15,0h.08a2.08,2.08,0,0,0-.52-.25c-.24-.07-.24-.2-.13-.37a.47.47,0,0,0,0-.09.48.48,0,0,0-.31-.34c-.17,0-.36-.07-.53-.12a1.43,1.43,0,0,1-.34-.14c-.21-.14-.41-.31-.62-.44a1.88,1.88,0,0,0-.3-.12c-.12-.06-.23-.14-.36-.2L96,44.23Zm35.66,3.29h.06a1.39,1.39,0,0,0,.72-.14c.27-.14.55-.26.81-.42a5.53,5.53,0,0,0,.68-.48c.15-.11.33-.19.4-.39s.11-.08.17-.11.08,0,.11-.05c.27-.26.52-.52.79-.79l.62-.58.35-.31c-.3.1-.59.23-.88.36l-.33.16a1.2,1.2,0,0,0-.53.29,1.42,1.42,0,0,1-.93.45.5.5,0,0,0-.51.39.1.1,0,0,0,0,.05c.11.18.11.31-.12.38a4.35,4.35,0,0,0-.54.22v0h.1a.41.41,0,0,1,.16,0s.06,0,.1.06,0,.08-.08.09-.32.08-.47.14a1,1,0,0,0-.72.66ZM116.18,61.74c.08-.2.13-.37.21-.54a3.19,3.19,0,0,1,.47-.87.26.26,0,0,0,.06-.19,4.31,4.31,0,0,0-.19-.61.32.32,0,0,0-.39-.21l-.08,0a.15.15,0,0,1-.16,0,.25.25,0,0,0-.36,0l0,0a1.28,1.28,0,0,0-.28.75.36.36,0,0,0,.07.17l.21.31c.11.23.2.46.3.68S116.12,61.58,116.18,61.74Zm-8.75,5.52c0-.25-.07-.3-.29-.36a.16.16,0,0,0-.23.08,0,0,0,0,0,0,0,1.37,1.37,0,0,1-.13.2c-.2.26-.4.51-.59.78a.17.17,0,0,0,0,.14s.09,0,.14,0a.24.24,0,0,0,.08-.06l.6-.45a2.11,2.11,0,0,0,.29-.2.62.62,0,0,0,.14-.18Zm17.92-.38a.33.33,0,0,0-.39.27v0c0,.17.07.25.17.33s.44.31.66.46l.25.19a.17.17,0,0,0,.14,0,.19.19,0,0,0,0-.15.42.42,0,0,0-.08-.12l-.68-.93a.18.18,0,0,0-.07-.05Zm-18-6.46.07,0a.64.64,0,0,0,.1-.13c.09-.24.16-.48.25-.72a2.23,2.23,0,0,1,.22-.61.5.5,0,0,0,.06-.36.26.26,0,0,0-.2-.15c-.09,0-.08.11,0,.19s0,.08,0,.11-.1.11-.12.17a5.23,5.23,0,0,0-.12.54C107.41,59.8,107.35,60.11,107.3,60.42Zm17.69,0,0,0a.48.48,0,0,0,0-.17c-.08-.44-.17-.89-.27-1.33,0-.05,0-.11-.06-.12s-.1-.1-.08-.18a.19.19,0,0,0,0-.13s-.07,0-.1,0-.19.16-.12.34.14.29.19.44c.11.34.21.68.32,1a1.43,1.43,0,0,0,.11.15Zm-10-1.69.06,0c-.15-.21-.05-.44-.11-.66a1.89,1.89,0,0,0-.25-.63.53.53,0,0,0-.05.25,1.18,1.18,0,0,1,0,.67.09.09,0,0,0,0,.07Zm2.79-1.31h-.06a2.66,2.66,0,0,0-.28,1.3,2.82,2.82,0,0,0,.36-.33.06.06,0,0,0,0-.07,1.11,1.11,0,0,1,0-.6c0-.1,0-.2,0-.3ZM98,69.78c-.08.08-.18.14-.26.22a.55.55,0,0,0-.14.66l.42.89A.36.36,0,0,1,98,72c-.09.13-.19.28-.29.41a.34.34,0,0,0,0,.35.69.69,0,0,0,.53.39,2.31,2.31,0,0,0,1,0,.83.83,0,0,0,.4-.11c.28-.18.55-.39.82-.58,0,0,.1-.08.12-.07.19.08.31,0,.44-.13a1.07,1.07,0,0,0,.51-.65c0-.16.12-.32.16-.48a.73.73,0,0,0,0-.36c-.07-.24-.18-.47-.26-.71a.6.6,0,0,0-.33-.38,1.52,1.52,0,0,0-.4-.12c-.15,0-.31,0-.45,0s-.47-.15-.71-.19a.86.86,0,0,0-.92.29.87.87,0,0,1-.13.15A.39.39,0,0,0,98,69.78Zm35.81-.13a.93.93,0,0,0-1-.35,9,9,0,0,1-1.06.22,1.17,1.17,0,0,0-.26,0A.73.73,0,0,0,131,70c0,.12-.11.23-.15.35a1,1,0,0,0-.09.77c.07.18.12.36.19.54a.5.5,0,0,0,.1.21,4.93,4.93,0,0,0,.49.42.3.3,0,0,0,.3.06.1.1,0,0,1,.1,0c.1.07.19.16.3.24a2,2,0,0,0,.91.48,2.34,2.34,0,0,0,1.31-.11c.19-.1.4-.41.19-.65a1.89,1.89,0,0,1-.2-.27.44.44,0,0,1-.09-.51l.42-.86a.58.58,0,0,0-.14-.74c-.09-.08-.18-.14-.26-.22a.41.41,0,0,0-.45,0ZM102.94,37.2c0,.1,0,.2,0,.31s.26.35.4.52a1.28,1.28,0,0,1,.15.25.67.67,0,0,0,.22.28,1.94,1.94,0,0,1,.58.4,2,2,0,0,0,.26.24,1,1,0,0,0,.31.15c.11,0,.23,0,.34,0a1.59,1.59,0,0,1,.91.39.28.28,0,0,0,.17.07,1,1,0,0,0,.86-.65.74.74,0,0,0,0-.21,1.1,1.1,0,0,1,0-.18,6.68,6.68,0,0,0-.07-.77,2.41,2.41,0,0,0-.71-1.16.38.38,0,0,0-.29-.1,1,1,0,0,1-.41,0c-.4-.18-.8-.37-1.19-.58a.65.65,0,0,0-.53,0l-.65.18a.33.33,0,0,0-.27.28c0,.22-.06.44-.1.65Zm26.47,0a2.08,2.08,0,0,0,0-.25,2.46,2.46,0,0,0,0-.26.45.45,0,0,0-.43-.45c-.15,0-.29-.1-.44-.13s-.37-.1-.49,0c-.41.22-.83.43-1.26.61a.71.71,0,0,1-.38.08.39.39,0,0,0-.36.07,2.6,2.6,0,0,0-.69,1,4.27,4.27,0,0,0-.13,1.18c0,.22.33.64.57.72a.52.52,0,0,0,.56-.09,1.37,1.37,0,0,1,1-.32.61.61,0,0,0,.45-.13l.49-.46a1.07,1.07,0,0,1,.21-.13.68.68,0,0,0,.41-.42.94.94,0,0,1,.32-.39.47.47,0,0,0,.19-.27,2.23,2.23,0,0,0,.05-.36ZM97.07,48.59q.2,0,.12-.21a1.05,1.05,0,0,0-.5-.54,3.75,3.75,0,0,0-.4-.21c-.11-.06-.21-.1-.32,0a.29.29,0,0,0,0,.34,1.11,1.11,0,0,0,1,.63ZM136.43,48a.26.26,0,0,0,0-.32.2.2,0,0,0-.27-.06,2.22,2.22,0,0,0-.87.58.56.56,0,0,0-.11.32c0,.12.17.08.26.1h0a1.06,1.06,0,0,0,1-.62Zm-24.34-3.83c0-.29-.09-.33-.36-.37a.23.23,0,0,0-.26.1.29.29,0,0,0,0,.31c.07.11.16.21.22.32a.2.2,0,0,0,.27.1h0a.23.23,0,0,0,.16-.25C112.12,44.29,112.1,44.22,112.09,44.15Zm8.31.46a.21.21,0,0,0,.28-.1c.06-.11.14-.21.21-.32a.27.27,0,0,0-.07-.38l-.07,0h-.18a.31.31,0,0,0-.27.19c0,.13,0,.26-.07.39a.22.22,0,0,0,.17.25ZM95.72,41.34c.08,0,.1-.13,0-.17a2.67,2.67,0,0,0-.56-.28c-.16-.06-.24,0-.19.22a.66.66,0,0,0,.52.33l.21-.1Zm41.6-.44a1,1,0,0,0-.73.29.17.17,0,0,0,0,.14.41.41,0,0,0,.48,0,.43.43,0,0,0,.29-.4.27.27,0,0,0-.08-.07Zm-22.6,13a.29.29,0,0,0-.23-.26.38.38,0,0,0-.34.34c0,.11.09.26.22.25a.37.37,0,0,0,.35-.33Zm3.5.09a.38.38,0,0,0-.35-.35.29.29,0,0,0-.23.25.39.39,0,0,0,.34.34c.13,0,.23-.1.24-.24Zm-23-13.56a.34.34,0,0,0,.05.21.45.45,0,0,0,.13.11.22.22,0,0,0,.3,0h0a.2.2,0,0,0,0-.22.34.34,0,0,0-.34-.17s-.13.06-.15.13Zm41.94.14a.19.19,0,0,0-.08-.25h0a.28.28,0,0,0-.29.09.32.32,0,0,0-.07.25c0,.07.12.11.18.17a.55.55,0,0,0,.31-.25Zm.84.18a.15.15,0,0,0,.07-.12c0-.12-.12-.26-.27-.28a.25.25,0,0,0-.17,0,.36.36,0,0,0,0,.42.11.11,0,0,0,.07,0l.27-.08Zm-43.18-.26c0-.06-.09-.15-.14-.15a.38.38,0,0,0-.34.17.16.16,0,0,0,0,.22h0a1.14,1.14,0,0,0,.26.09c.1,0,.22-.24.17-.34Zm7-3.4c-.14-.15-.28-.29-.43-.43s-.08,0-.12,0,0,.1,0,.12a1.61,1.61,0,0,0,.54.56c.06,0,.15,0,.15-.11l-.12-.11Zm28.8.21c.17-.17.34-.35.5-.53,0,0,0-.09,0-.13a.5.5,0,0,0-.13,0c-.17.16-.34.32-.5.49a.12.12,0,0,0,0,.1s.05.05.07.08l.09,0Z" transform="translate(-89.89 -32.1)"/></g></g><g id="Group_4" data-name="Group 4"><g id="BRIAN" class="cls-2"><text class="cls-3" transform="translate(81.63 14.03)">BRIAN</text></g><g id="_208.304.9811" data-name=" 208.304.9811" class="cls-2"><text class="cls-4" transform="translate(81.63 44.57)"><tspan class="cls-5">2</tspan><tspan class="cls-6" x="5" y="0">0</tspan><tspan class="cls-7" x="10.9" y="0">8.</tspan><tspan x="18.52" y="0">30</tspan><tspan class="cls-8" x="29.41" y="0">4</tspan><tspan x="35.44" y="0">.9811</tspan></text></g><g id="brian_thisisblackbird.com" data-name="brian thisisblackbird.com" class="cls-2"><text class="cls-4" transform="translate(81.63 54.05)">b<tspan class="cls-9" x="6.04" y="0">r</tspan><tspan class="cls-6" x="9.49" y="0">ian</tspan><tspan class="cls-10" x="23.07" y="0">@</tspan><tspan x="32.36" y="0">thisisbl</tspan><tspan class="cls-11" x="63.56" y="0">a</tspan><tspan class="cls-12" x="68.79" y="0">c</tspan><tspan x="73.68" y="0">kbi</tspan><tspan class="cls-13" x="87.32" y="0">r</tspan><tspan x="90.73" y="0">d</tspan><tspan class="cls-14" x="96.77" y="0">.</tspan><tspan class="cls-12" x="98.41" y="0">c</tspan><tspan x="103.29" y="0">om</tspan></text></g><g id="Clark" class="cls-2"><text class="cls-15" transform="translate(129.03 14.03)">Cla<tspan class="cls-16" x="21.51" y="0">r</tspan><tspan x="26.76" y="0">k</tspan></text></g><g id="Web_Developer" data-name="Web Developer" class="cls-2"><text class="cls-17" transform="translate(81.63 24.56)"><tspan class="cls-18">W</tspan><tspan x="9.18" y="0">eb D</tspan><tspan class="cls-19" x="30.09" y="0">e</tspan><tspan class="cls-20" x="35.27" y="0">v</tspan><tspan class="cls-21" x="39.69" y="0">eloper</tspan></text></g></g><g id="Layer_2-2" data-name="Layer 2-2"><g id="Layer_1-2-2" data-name="Layer 1-2"><path id="Path_2" data-name="Path 2" class="cls-1" d="M119.52,85.82a1,1,0,0,0,.34.11c.08,0,.15-.06.15-.19s-.09-.38-.09-.62a1.3,1.3,0,0,0,1,.49,1,1,0,0,0,.51-.12,5.72,5.72,0,0,0,1.78-3.89c0-.11,0-.21,0-.32,0-.29-.38-1-.91-1a2.15,2.15,0,0,0-1.37.83L122,78.45a.63.63,0,0,0,0-.19c0-.42-.34-1.05-.62-1.05-.44,0-2.43,4.75-2.43,7.36A1.46,1.46,0,0,0,119.52,85.82ZM122.1,81s.05.05.05.13c0,.64-1.27,3.66-1.65,3.64a.86.86,0,0,1-.48-.79c0-1.24,2-3,2.08-3ZM124,85.73c.5,0,1.16-.83,1.7-1.68,0,.13,0,.25,0,.36,0,.77.23,1.32.88,1.32a.26.26,0,0,0,.26-.21,12.83,12.83,0,0,1,1.66-3.65,2.08,2.08,0,0,0,0,.35c0,1,.24,1.51.7,1.51a.2.2,0,0,0,.22-.18,0,0,0,0,0,0,0c0-.13,0-.26,0-.4,0-1.26.77-1.88.77-2.36a.43.43,0,0,0-.16-.32.6.6,0,0,0-.43-.18c-1.06,0-2.34,2.62-2.53,3.33a13.39,13.39,0,0,1,1-2.75.52.52,0,0,0,0-.11c0-.34-.53-.6-.9-.6a.4.4,0,0,0-.29.1,11.43,11.43,0,0,0-.84,2.36c-.54.59-1.1,1.93-1.88,2.41a8.9,8.9,0,0,1,1.3-3.74.65.65,0,0,0,.08-.31c0-.44-.57-.75-.93-.75a.29.29,0,0,0-.27.13A12,12,0,0,0,123,84.42c0,.67.29,1.31,1,1.31Zm1.55-5.84a.15.15,0,0,0,.13,0,11.06,11.06,0,0,1,.93-1.31.08.08,0,0,0,0,0c0-.22-.71-.65-1-.65s-.76,1.26-.76,1.53.45.53.67.53Zm9.64,3.24a1.14,1.14,0,0,0-.51.35c-.53.52-.49.82-1.26,1.43a.14.14,0,0,1-.2,0,.14.14,0,0,1,0-.06.76.76,0,0,1,0-.15c0-1.59,1.23-4.5,1.87-6l.1-.24a1.26,1.26,0,0,0,.08-.43c0-.53-.36-1-.66-1s-1,1.39-1.71,3.68a1.28,1.28,0,0,0-1-.47c-1.14,0-2.46,2.2-2.46,4.11,0,0,0,1.41.94,1.41.61,0,1.3-.64,1.79-1.3,0,.87.48,1.32,1,1.32.9,0,1.22-.79,1.81-1.89l.16-.3a1,1,0,0,0,.13-.33.07.07,0,0,0-.07-.08Zm-2.93,0v.08a7.63,7.63,0,0,1-1.73,1.94s0-.05,0-.13c0-.7,1.27-3.85,1.77-3.85.08,0,.1,0,.1.22a5.07,5.07,0,0,1-.24,1.39.3.3,0,0,0,0,.1.36.36,0,0,0,.18.25Zm.8,4c-1.07-.58-7-.73-7.84-.73-1.93,0-4,0-6.16,0a5.39,5.39,0,0,1-2.19-3.11A2.9,2.9,0,0,0,119.31,81a.88.88,0,0,0-.79-.94h0c-.52,0-1.26.8-1.82,1.5.38-1,.85-2.13,1.33-3.26a.57.57,0,0,0,0-.18c0-.41-.35-1.08-.64-1.08s-1.68,2.93-2.19,5.43l-.06.05c-.4.35-1.17,2.33-2.32,2.33a.68.68,0,0,1-.67-.6,2.17,2.17,0,0,1,.13-1c.22-.67,1-2,1.39-2,.08,0,.13.06.13.19a2.81,2.81,0,0,1-.4,1,.29.29,0,0,0,0,.13.19.19,0,0,0,.17.19h0c.61,0,1.19-1.39,1.19-1.7a1.05,1.05,0,0,0-1-.89c-1,0-2,1.23-2.54,2.48A16.32,16.32,0,0,1,109.55,85a6.38,6.38,0,0,1,.75-2.63.5.5,0,0,0,0-.16c0-.34-.43-.66-.72-.77a1.38,1.38,0,0,0-1.34-1.28c-.94,0-1.87,1.27-2.31,2.67-.48.68-1,1.87-1.7,2.24a2.16,2.16,0,0,1,0-.35c0-1.67,1.38-4.85,2-6.24a1.11,1.11,0,0,0,.08-.44c0-.52-.34-1-.64-1l-.11,0a17.76,17.76,0,0,0-2.31,7.16c0,.93.27,1.57,1,1.57.55,0,1-.63,1.48-1.36,0,.5.32,1.41,1.1,1.41a2.74,2.74,0,0,0,1.52-1,1.13,1.13,0,0,0,.74,1l.06,0a1,1,0,0,0,.29,0,.66.66,0,0,0,.43-.15,5.51,5.51,0,0,0,.94-1.31,1.75,1.75,0,0,0,1.79,1.38c1.11,0,1.84-1.07,2.44-2.16,0,.2,0,.68,0,.85a1.66,1.66,0,0,0,.53,1.18.64.64,0,0,0,.36.14c.08,0,.14-.06.14-.2s-.1-.55-.1-.85a6.28,6.28,0,0,1,.16-1.23,8.7,8.7,0,0,0,1,2.88,84.7,84.7,0,0,0-13.06.7c-1.44.22-3.81.55-5,1.46-.43.29-1.17.87-1.17,1.23,0,.11,0,.14.11.14a1.08,1.08,0,0,0,.3-.11,16.07,16.07,0,0,1,4.09-1l.36,0c6.08-.94,13.82-.82,20.38-.82,2.33,0,4.42,0,6.59,0a8.94,8.94,0,0,0,1.27,0,4.07,4.07,0,0,0,2.05-.53.16.16,0,0,0,0-.22l-.05,0Zm-24.57-4.32a.3.3,0,0,0,0,.1.34.34,0,0,0,.18.25A6.35,6.35,0,0,1,106.9,85s0,0,0-.11c0-.63,1.24-3.71,1.74-3.71.08,0,.09,0,.09.22a4.71,4.71,0,0,1-.23,1.39Zm9.84-1.85a.06.06,0,0,1,.06,0c0,.32-1.08,1.6-1.72,1.66A5,5,0,0,1,118.3,80.9Zm-15.09.86c0-.45-.47-.85-1-1.17a5.18,5.18,0,0,0,2-3.19,1.06,1.06,0,0,0-1.07-1.06h0c-1.36,0-2.87,1.46-3.84,3.15.29-.75.62-1.44.86-2.12a.86.86,0,0,0,0-.28.91.91,0,0,0-.07-.14.58.58,0,0,0-.24-.25,1.64,1.64,0,0,0-.54-.13H99.2c-1.6,0-4.18,2.94-4.18,4.51a1.21,1.21,0,0,0,1.23,1.1h0a.67.67,0,0,0,.2,0h0a.05.05,0,0,0,0,0,.2.2,0,0,0,.06-.18c0-.1-.23-.6-.24-.62C96,80.69,97.77,77.6,99,77.11c-.54,1.09-1.85,4.15-1.85,5.61a.64.64,0,0,0,.34.66h0a2,2,0,0,0,.33.09l.45.07h.18c.16,0,.18-.09.18-.18v-.12c0-3,2.8-6.21,4.09-6.21.16,0,.37,0,.37.21,0,.56-1.89,2.33-3,3a1.21,1.21,0,0,0-.26.2h0s-.13.13-.13.21a1.13,1.13,0,0,0,.36.55.72.72,0,0,0,.28,0h0c.54,0,1.14.2,1.14.59,0,2.07-3.38,3.6-4.13,3.6-.08,0-.14,0-.14-.06A3.71,3.71,0,0,1,100,84a.21.21,0,0,0,.19-.22c0-.15-.13-.21-.45-.21-1.17,0-2.91.43-2.91,1.45a1.36,1.36,0,0,0,1.25,1.46c2.6-.26,5.14-2.26,5.14-4.72Z" transform="translate(-89.89 -32.1)"/></g></g><line id="Line_1" data-name="Line 1" class="cls-22" x1="67.08" y1="0.73" x2="67.08" y2="58.41"/></svg>